<?xml version="1.0" encoding="UTF-8"?>
<svg width="115px" height="63px" viewBox="0 0 115 63" version="1.1" xmlns="http://www.w3.org/2000/svg" xmlns:xlink="http://www.w3.org/1999/xlink">
    <!-- Generator: Sketch 52.2 (67145) - http://www.bohemiancoding.com/sketch -->
    <title>european-parliament</title>
    <desc>Created with Sketch.</desc>
    <g id="Page-1" stroke="none" stroke-width="1" fill="none" fill-rule="evenodd">
        <g id="european-parliament" transform="translate(-1.000000, 0.000000)" fill="#FFFFFF" fill-rule="nonzero">
            <path d="M71.748,20.635 C70.507,19.344 66.843,17.22 63.903,16.5 L63.903,14.46 C66.474,15.028 70.69,16.835 71.748,17.738 L71.748,20.635 Z M73.885,24.96 C73.885,24.96 74.017,23.74 73.062,22.196 L73.062,18.713 C73.487,19.041 76.458,21.303 76.382,24.96 L73.885,24.96 Z M80.101,17.6 C82.964,19.728 84.645,22.088 85.351,24.975 L82.708,24.975 C82.109,23.087 81.356,22.059 80.101,20.746 L80.101,17.601 L80.101,17.6 Z M78.491,19.325 C75.973,17.307 71.079,14.925 66.475,13.809 L66.475,11.777 C71.267,12.777 76.065,14.925 78.49,16.491 L78.49,19.325 L78.491,19.325 Z M85.289,17.605 C81.257,14.92 76.102,12.58 69.309,10.941 L69.309,8.912 C76.383,10.405 82.377,12.968 85.289,14.802 L85.289,17.605 Z M87.17,15.995 C90.268,17.947 93.862,21.798 94.823,24.975 L92.015,24.975 C90.818,22.422 89.022,20.483 87.164,19.01 C87.164,19.01 87.168,15.993 87.17,15.995 Z M92.873,15.86 C88.733,12.925 79.816,9.228 72.33,7.729 L72.33,5.706 C78.958,6.872 87.304,9.765 92.873,13.056 L92.873,15.86 Z M101.878,24.975 C100.065,22.048 98.679,20.065 94.932,17.292 L94.932,14.317 C97.407,15.86 102.704,19.917 104.819,24.975 L101.878,24.975 Z M100.336,14.089 C94.823,10.217 84.043,6.026 75.588,4.272 L75.588,2.162 C86.7,4.3 95.826,8.426 100.336,11.183 L100.336,14.089 Z M111.422,24.975 C109.352,21.335 105.85,17.918 102.582,15.625 L102.582,12.58 C106.992,15.446 111.072,18.913 114.639,24.975 L111.422,24.975 Z M61.797,15.931 C59.881,15.366 54.937,14.742 51.581,14.916 L51.581,13.416 C53.817,13.124 58.903,13.471 61.797,14.015 L61.797,15.931 Z M49.33,15.054 C45.403,15.361 41.187,16.377 38.144,18.83 L38.144,17.597 C40.276,16.024 43.959,14.181 49.33,13.62 L49.33,15.054 Z M36.904,20.116 C35.753,21.66 35.347,24.839 38.802,27.448 L38.802,29.344 C38.145,28.884 31.963,24.266 36.904,18.721 L36.904,20.116 Z M40.673,28.623 C44.423,30.66 48.908,31.589 52.171,31.787 L52.206,34.543 C47.404,33.683 44.027,32.51 40.673,30.655 L40.673,28.623 Z M53.809,31.873 C54.616,31.988 58.569,31.961 60.701,31.817 L60.701,35.042 C58.3956192,35.0310356 56.0915399,34.9302926 53.794,34.74 L53.809,31.873 Z M64.368,13.315 C60.661,12.506 55.477,11.837 50.237,12.03 L50.237,10.51 C54.207,10.14 60.911,10.66 64.368,11.361 L64.368,13.315 Z M50.394,40.07 C46.336,39.504 37.82,37.255 32.437,33.199 L32.437,31.152 C37.347,34.752 45.252,36.545 50.394,37 L50.394,40.07 Z M30.572,31.663 C26.454,28.149 24.472,22.213 29.88,17.308 L29.88,18.575 C27.067,21.288 26.216,25.498 30.572,29.635 L30.572,31.663 Z M52.202,37.165 C53.472,37.284 57.837,37.432 60.701,37.416 L60.701,40.924 C58.045,40.924 55.331,40.781 52.201,40.344 L52.201,37.165 L52.202,37.165 Z M31.337,16.113 C34.845,13.435 41.87,11.093 47.987,10.695 L47.987,12.155 C43.048,12.421 36.022,13.825 31.337,17.308 L31.337,16.113 Z M23.714,33.521 C30.896,39.725 42.017,42.108 48.173,42.798 L48.173,46.22 C41.493,45.069 30.435,41.772 23.713,35.717 L23.713,33.521 L23.714,33.521 Z M67.203,10.438 C62.571,9.385 54.233,8.618 48.326,9.028 L48.326,7.5 C55.354,6.858 62.86,7.719 67.203,8.51 L67.203,10.438 Z M50.15,43.02 C52.136,43.241 59.108,43.641 60.7,43.585 L60.7,47.531 C58.03,47.434 53.13,47.157 50.15,46.561 L50.15,43.021 L50.15,43.02 Z M46.07,9.17 C40.672,9.462 31.336,11.284 25.304,15.387 L25.304,14.184 C31.502,9.994 40.844,8.134 46.069,7.685 L46.069,9.17 L46.07,9.17 Z M23.603,16.61 C15.756,23.162 20.074,29.634 21.863,31.631 L21.863,33.843 C13.815,24.726 20.768,17.523 23.603,15.387 L23.603,16.61 Z M70.223,7.275 C63.911,5.944 53.778,5.141 46.653,5.692 L46.653,4.162 C54.713,3.372 64.961,4.264 70.223,5.295 L70.223,7.275 Z M47.957,49.086 C52.157,49.665 56.113,49.882 60.7,49.96 L60.7,54.21 C56.865,54.08 51.923,53.603 47.957,52.832 L47.957,49.086 Z M45.791,52.477 C38.799,51.214 23.999,47.121 15.077,38.243 L15.077,35.905 C22.607,43.281 34.761,47.295 45.791,48.853 L45.791,52.477 Z M19.211,12.063 C26.119,7.53 36.984,5.006 44.402,4.363 L44.402,5.855 C36.686,6.538 26.584,8.553 19.211,13.241 L19.211,12.063 Z M13.216,35.978 C9.061,31.039 6.268,21.245 17.473,13.242 L17.473,14.455 C7.496,21.881 10.329,29.637 13.216,33.569 L13.216,35.979 L13.216,35.978 Z M5.479,37.49 C13.522,48.29 30.869,53.878 42.286,55.808 L42.286,59.813 C31.419,57.525 13.943,51.069 5.479,40.102 L5.479,37.49 Z M73.457,3.819 C65.537,2.195 53.784,1.196 44.473,2.015 L44.473,0.435 C55.609,-0.723 68.255,0.677 73.457,1.763 L73.457,3.819 Z M42.223,2.206 C34.047,2.979 22.358,5.392 13.549,10.787 L13.549,9.563 C20.56,4.986 32.559,1.647 42.223,0.662 L42.223,2.206 Z M44.646,56.19 C47.886,56.71 54.36,57.4 60.7,57.6 L60.7,62.307 C56.546,62.273 47.128,60.927 44.646,60.297 L44.646,56.19 Z M63.362,62.663 L63.362,27.625 L115.934,27.625 L115.934,62.663 L63.362,62.663 Z M89.622,31.433 L89.122,32.987 L87.49,32.979 L88.818,33.933 L88.306,35.485 L89.621,34.519 L90.941,35.485 L90.429,33.933 L91.754,32.979 L90.122,32.987 L89.622,31.433 Z M89.622,54.807 L89.122,56.357 L87.49,56.349 L88.818,57.306 L88.306,58.858 L89.621,57.894 L90.941,58.858 L90.429,57.306 L91.754,56.349 L90.122,56.357 L89.622,54.807 Z M83.802,32.987 L83.307,34.541 L81.675,34.536 L82.996,35.486 L82.486,37.036 L83.801,36.071 L85.121,37.036 L84.611,35.486 L85.933,34.536 L84.301,34.541 L83.801,32.987 L83.802,32.987 Z M79.52,37.277 L79.021,38.831 L77.384,38.821 L78.714,39.776 L78.202,41.326 L79.52,40.36 L80.832,41.326 L80.322,39.776 L81.652,38.82 L80.016,38.831 L79.52,37.278 L79.52,37.277 Z M77.939,43.108 L77.441,44.658 L75.806,44.651 L77.136,45.606 L76.622,47.153 L77.939,46.188 L79.25,47.153 L78.745,45.606 L80.07,44.651 L78.433,44.658 L77.939,43.108 Z M79.5,48.935 L79.001,50.495 L77.369,50.485 L78.697,51.437 L78.183,52.987 L79.5,52.017 L80.82,52.987 L80.305,51.437 L81.629,50.482 L80.001,50.495 L79.5,48.935 Z M83.801,53.223 L83.307,54.778 L81.675,54.77 L82.996,55.722 L82.486,57.273 L83.801,56.309 L85.121,57.273 L84.611,55.723 L85.933,54.77 L84.301,54.778 L83.801,53.223 Z M95.448,32.987 L94.95,34.541 L93.313,34.536 L94.641,35.486 L94.129,37.036 L95.449,36.071 L96.763,37.036 L96.254,35.486 L97.578,34.536 L95.949,34.541 L95.449,32.987 L95.448,32.987 Z M99.732,37.277 L99.233,38.831 L97.599,38.821 L98.925,39.776 L98.413,41.326 L99.733,40.36 L101.052,41.326 L100.537,39.776 L101.862,38.82 L100.228,38.831 L99.732,37.278 L99.732,37.277 Z M101.312,43.108 L100.815,44.658 L99.177,44.651 L100.506,45.606 L99.994,47.153 L101.313,46.188 L102.63,47.153 L102.12,45.606 L103.442,44.651 L101.81,44.658 L101.313,43.108 L101.312,43.108 Z M99.743,48.935 L99.251,50.495 L97.616,50.482 L98.944,51.437 L98.431,52.987 L99.743,52.017 L101.066,52.987 L100.554,51.437 L101.881,50.485 L100.247,50.495 L99.743,48.935 Z M95.448,53.223 L94.95,54.778 L93.313,54.77 L94.641,55.722 L94.129,57.273 L95.449,56.309 L96.763,57.273 L96.254,55.723 L97.578,54.77 L95.949,54.778 L95.449,53.223 L95.448,53.223 Z M11.66,12.03 C6.349,15.8 -1.517,23.576 3.643,34.29 L3.643,37.222 C-4.607,22.687 8.823,12.614 11.66,10.787 L11.66,12.03 Z" id="Shape"></path>
        </g>
    </g>
</svg>